<svg width="179" height="147" viewBox="0 0 179 147" fill="none" xmlns="http://www.w3.org/2000/svg">
<rect width="179" height="147" fill="#F5F5F5"/>
<g clip-path="url(#clip0_0_1)">
<rect width="179" height="147" fill="white"/>
<path d="M4.6 143V2.99999H32V119.8H73.6V143H4.6ZM149.617 143L112.217 65.6L111.217 66L112.417 89.6V143H87.2172V2.99999H107.417L144.217 83.4L145.217 83L143.017 58.4V2.99999H168.217V143H149.617Z" fill="#AC8E2A"/>
<mask id="mask0_0_1" style="mask-type:alpha" maskUnits="userSpaceOnUse" x="-35" y="79" width="242" height="68">
<rect x="-34.5" y="79.5" width="241" height="67" fill="white" stroke="black"/>
</mask>
<g mask="url(#mask0_0_1)">
<path d="M4.6 143V2.99999H32V119.8H73.6V143H4.6ZM149.617 143L112.217 65.6L111.217 66L112.417 89.6V143H87.2172V2.99999H107.417L144.217 83.4L145.217 83L143.017 58.4V2.99999H168.217V143H149.617Z" fill="black"/>
<rect x="-49" y="79" width="319" height="24" fill="white"/>
<path d="M21.4713 96.752H26.3993V100H19.2873C18.0553 98.8427 17.122 97.3773 16.4873 95.604C15.8526 93.8307 15.5353 92.0107 15.5353 90.144C15.5353 88.2587 15.89 86.448 16.5993 84.712C17.3086 82.976 18.3633 81.5387 19.7633 80.4H26.3993V83.76H21.4713C20.9673 84.3387 20.5286 85.272 20.1553 86.56C19.8006 87.848 19.6233 89.08 19.6233 90.256C19.6233 91.432 19.8006 92.664 20.1553 93.952C20.5286 95.24 20.9673 96.1733 21.4713 96.752ZM36.5519 100H30.4479C28.5813 98.264 27.6479 95.8933 27.6479 92.888C27.6479 91.376 27.8533 90.06 28.2639 88.94C28.6933 87.82 29.3653 86.7373 30.2799 85.692H36.8319C37.8026 86.812 38.4653 87.904 38.8199 88.968C39.1746 90.0133 39.3519 91.32 39.3519 92.888C39.3519 95.8933 38.4186 98.264 36.5519 100ZM32.4359 97.06H34.5639C35.2359 95.7533 35.5719 94.2693 35.5719 92.608C35.5719 90.9467 35.2266 89.6213 34.5359 88.632H32.4359C31.7639 89.584 31.4279 90.9373 31.4279 92.692C31.4279 94.428 31.7639 95.884 32.4359 97.06ZM47.5723 85.692H50.5403C51.3617 86.7373 51.9217 87.7827 52.2203 88.828C52.519 89.8733 52.6683 91.18 52.6683 92.748V100H48.9443V92.468C48.9443 90.6947 48.7017 89.416 48.2163 88.632H45.0803V100H41.3563V85.692H44.2683L44.7723 86.7C45.183 86.3267 45.5657 86.0653 45.9203 85.916C46.2937 85.7667 46.8443 85.692 47.5723 85.692ZM55.376 93.756V88.632H53.444V85.692H55.376V81.8H59.1V85.692H61.396V88.632H59.1V94.652C59.1 95.7907 59.296 96.5933 59.688 97.06H61.396V100H57.42C56.4307 99.0853 55.8334 98.096 55.628 97.032C55.46 96.136 55.376 95.044 55.376 93.756ZM69.87 93.532H66.874C66.482 94.0173 66.286 94.624 66.286 95.352C66.286 96.08 66.4913 96.6493 66.902 97.06H69.87V93.532ZM63.85 85.692H70.794C71.914 86.364 72.6513 87.1387 73.006 88.016C73.3606 88.8747 73.538 90.0507 73.538 91.544V95.744C73.538 97.2933 73.5753 98.712 73.65 100H70.458L69.954 98.992C69.226 99.664 68.1993 100 66.874 100H65.11C63.5233 98.9547 62.73 97.452 62.73 95.492C62.73 93.5133 63.542 91.9547 65.166 90.816H67.798C68.526 90.816 69.2073 91.04 69.842 91.488V90.088C69.842 89.36 69.5246 88.8747 68.89 88.632H63.85V85.692ZM75.9462 80.4H79.6422V86.7C80.0529 86.3267 80.4355 86.0653 80.7902 85.916C81.1635 85.7667 81.7142 85.692 82.4422 85.692H84.6822C85.4662 86.4573 86.0822 87.4467 86.5302 88.66C86.9782 89.8733 87.2022 91.208 87.2022 92.664C87.2022 95.7813 86.2689 98.2267 84.4022 100H81.7422C80.8275 100 80.0622 99.6547 79.4462 98.964L78.9422 100H75.9462V80.4ZM79.6702 97.06H82.3582C83.0489 95.884 83.3942 94.456 83.3942 92.776C83.3942 91.096 83.0395 89.7147 82.3302 88.632H79.6702V97.06ZM89.2079 100V85.692H92.9039V100H89.2079ZM89.2079 80.4H92.9039V84.18H89.2079V80.4ZM99.0016 80.4V100H95.3056V80.4H99.0016ZM101.403 100V85.692H105.099V100H101.403ZM101.403 80.4H105.099V84.18H101.403V80.4ZM118.337 100H115.509L115.005 98.992C114.594 99.3653 114.202 99.6267 113.829 99.776C113.474 99.9253 112.933 100 112.205 100H109.769C108.948 99.216 108.294 98.1893 107.809 96.92C107.342 95.6507 107.109 94.232 107.109 92.664C107.109 91.0773 107.342 89.7333 107.809 88.632C108.294 87.5307 108.976 86.5507 109.853 85.692H112.261C113.25 85.692 114.034 85.9533 114.613 86.476V80.4H118.337V100ZM114.613 88.632H111.925C111.234 89.808 110.889 91.2547 110.889 92.972C110.889 94.6707 111.225 96.0333 111.897 97.06H114.613V88.632ZM127.483 93.532H124.487C124.095 94.0173 123.899 94.624 123.899 95.352C123.899 96.08 124.105 96.6493 124.515 97.06H127.483V93.532ZM121.463 85.692H128.407C129.527 86.364 130.265 87.1387 130.619 88.016C130.974 88.8747 131.151 90.0507 131.151 91.544V95.744C131.151 97.2933 131.189 98.712 131.263 100H128.071L127.567 98.992C126.839 99.664 125.813 100 124.487 100H122.723C121.137 98.9547 120.343 97.452 120.343 95.492C120.343 93.5133 121.155 91.9547 122.779 90.816H125.411C126.139 90.816 126.821 91.04 127.455 91.488V90.088C127.455 89.36 127.138 88.8747 126.503 88.632H121.463V85.692ZM144.395 100H141.567L141.063 98.992C140.653 99.3653 140.261 99.6267 139.887 99.776C139.533 99.9253 138.991 100 138.263 100H135.827C135.006 99.216 134.353 98.1893 133.867 96.92C133.401 95.6507 133.167 94.232 133.167 92.664C133.167 91.0773 133.401 89.7333 133.867 88.632C134.353 87.5307 135.034 86.5507 135.911 85.692H138.319C139.309 85.692 140.093 85.9533 140.671 86.476V80.4H144.395V100ZM140.671 88.632H137.983C137.293 89.808 136.947 91.2547 136.947 92.972C136.947 94.6707 137.283 96.0333 137.955 97.06H140.671V88.632ZM153.262 88.632H151.162C150.882 88.968 150.649 89.4347 150.462 90.032C150.294 90.6293 150.21 91.208 150.21 91.768H154.214C154.251 91.208 154.177 90.6293 153.99 90.032C153.803 89.416 153.561 88.9493 153.262 88.632ZM157.07 97.06V100H149.958C148.651 99.1227 147.727 98.04 147.186 96.752C146.663 95.4453 146.402 94.1293 146.402 92.804C146.402 89.7427 147.559 87.372 149.874 85.692H154.41C155.661 86.6067 156.51 87.5773 156.958 88.604C157.406 89.6307 157.63 90.6667 157.63 91.712C157.63 92.7573 157.546 93.6533 157.378 94.4H150.406C150.462 94.8293 150.621 95.324 150.882 95.884C151.162 96.4253 151.461 96.8173 151.778 97.06H157.07Z" fill="black"/>
</g>
</g>
<defs>
<clipPath id="clip0_0_1">
<rect width="179" height="147" fill="white"/>
</clipPath>
</defs>
</svg>
